<svg width="40" height="40" viewBox="0 0 40 40" fill="none" xmlns="http://www.w3.org/2000/svg">
<path fill-rule="evenodd" clip-rule="evenodd" d="M20 40C31.0457 40 40 31.0457 40 20C40 8.9543 31.0457 0 20 0C8.9543 0 0 8.9543 0 20C0 31.0457 8.9543 40 20 40Z" fill="black" fill-opacity="0.04"/>
<path fill-rule="evenodd" clip-rule="evenodd" d="M22.5682 22C26.4468 22 29.2044 24.0891 29.9262 27.1612L29.9723 27.3722C30.1207 28.1046 29.658 28.8209 28.9386 28.9721C28.8502 28.9906 28.7601 29 28.6698 29H16.3502C15.6045 29 15 28.3845 15 27.6252C15 27.55 15.0061 27.475 15.0181 27.4009L15.0406 27.2906C15.7898 24.2509 18.6014 22 22.5682 22ZM11.75 16.5C12.1297 16.5 12.4435 16.7822 12.4932 17.1482L12.5 17.25V19.25H14.5C14.8797 19.25 15.1935 19.5322 15.2432 19.8982L15.25 20C15.25 20.3797 14.9678 20.6935 14.6018 20.7432L14.5 20.75H12.5V22.75C12.5 23.1297 12.2178 23.4435 11.8518 23.4932L11.75 23.5C11.3703 23.5 11.0565 23.2178 11.0068 22.8518L11 22.75V20.75H9C8.6203 20.75 8.30651 20.4678 8.25685 20.1018L8.25 20C8.25 19.6203 8.53215 19.3065 8.89823 19.2568L9 19.25H11V17.25C11 16.9048 11.2332 16.6141 11.5506 16.5268L11.6482 16.5068L11.75 16.5ZM26.6564 12.3415C27.6542 14.043 27.8394 16.1214 27.212 18.5766C27.1665 18.8315 27.3308 19.0362 27.705 19.1906L27.754 19.2091L27.8154 19.2293C27.9541 19.2723 28.0313 19.4186 27.9879 19.556C27.9756 19.5951 27.9543 19.6304 27.926 19.6594L27.8786 19.6978C27.2609 20.0894 25.4785 20.1183 24.4444 19.9155C23.7609 20.6385 23.0139 21 22.2032 21C21.3926 21 20.6373 20.6385 19.9373 19.9155C17.9791 19.7606 17 18.3064 17 15.5528C17 13.032 18.0217 11.3752 20.065 10.5825C20.4173 10.4459 20.8041 10.4229 21.1703 10.5168L21.4415 10.5864C23.338 9.4143 25.0763 9.99934 26.6564 12.3415Z" fill="black"/>
</svg>
