<svg width="40" height="40" viewBox="0 0 40 40" fill="none" xmlns="http://www.w3.org/2000/svg">
<path fill-rule="evenodd" clip-rule="evenodd" d="M20 40C31.0457 40 40 31.0457 40 20C40 8.9543 31.0457 0 20 0C8.9543 0 0 8.9543 0 20C0 31.0457 8.9543 40 20 40Z" fill="black" fill-opacity="0.04"/>
<path fill-rule="evenodd" clip-rule="evenodd" d="M18.2811 21.475L18.382 21.5759C20.1193 23.2578 21.5732 24.0477 22.7437 23.9456L23.0811 23.6309C23.5608 23.1943 23.9226 22.9176 24.1663 22.8007C24.6738 22.5573 25.0299 22.5622 25.9916 23.0825C27.2569 23.7671 28.1305 24.5629 28.5769 25.0093C28.9914 25.4238 28.8626 26.1379 28.717 26.4546L28.6206 26.6313C28.3616 27.0813 27.4223 28.5658 25.6221 28.8198C24.938 28.9163 24.0744 28.8278 23.0618 28.5228C20.8927 27.7719 18.7327 26.3956 16.5817 24.3939L16.1992 24.0305L16.1956 24.0341L16.011 23.8462L15.8229 23.6614L15.8265 23.6578L15.4631 23.2753C13.4614 21.1243 12.0851 18.9643 11.3342 16.7952C11.0292 15.7826 10.9407 14.919 11.0372 14.2349C11.3092 12.3073 12.992 11.3668 13.3049 11.1915L13.3367 11.1736C13.6075 11.0174 14.4013 10.8337 14.8477 11.2801L15.0591 11.4975C15.5192 11.9841 16.1877 12.7809 16.7744 13.8653C17.2948 14.8271 17.2997 15.1832 17.0563 15.6907C16.9134 15.9886 16.5318 16.4628 15.9114 17.1133C15.8093 18.2838 16.5992 19.7377 18.2811 21.475Z" fill="black"/>
</svg>
