<svg width="40" height="40" viewBox="0 0 40 40" fill="none" xmlns="http://www.w3.org/2000/svg">
<path fill-rule="evenodd" clip-rule="evenodd" d="M20 39.5C30.7696 39.5 39.5 30.7696 39.5 20C39.5 9.23045 30.7696 0.5 20 0.5C9.23045 0.5 0.5 9.23045 0.5 20C0.5 30.7696 9.23045 39.5 20 39.5Z" fill="white" fill-opacity="0.35"/>
<path fill-rule="evenodd" clip-rule="evenodd" d="M21.5282 12C21.9923 12 22.4394 12.1647 22.7804 12.4612L23.9696 13.7453C24.268 14.0048 24.6476 14.1633 25.0487 14.1989L25.2218 14.2065H25.7692C27.5535 14.2065 29 15.3191 29 17V24.9565C29 26.6374 27.5535 28 25.7692 28H14.2308C12.4465 28 11 26.6374 11 24.9565V17C11 15.3191 12.4465 14.2065 14.2308 14.2065H14.7782C15.2423 14.2065 15.6894 14.0419 16.0304 13.7453L17.2196 12.4612C17.5606 12.1647 18.0077 12 18.4718 12H21.5282ZM16.3465 17.5595C16.2169 17.469 16.0438 17.4844 15.9325 17.5878L15.8889 17.6375L14.0601 20.1994C14.021 20.2541 14 20.3195 14 20.3866C14 20.5435 14.1125 20.6744 14.2622 20.7046L14.3283 20.7112H15.4184L15.4217 20.8908C15.5172 23.4523 17.6474 25.5 20.2613 25.5C20.6693 25.5 21 25.1729 21 24.7695C21 24.3661 20.6693 24.039 20.2613 24.039C18.4589 24.039 16.9875 22.6381 16.9 20.8773L16.8959 20.7112H17.986C18.0538 20.7112 18.1199 20.6905 18.1753 20.6518C18.3049 20.5613 18.3482 20.3949 18.2869 20.2566L18.2542 20.1994L16.4254 17.6375C16.4038 17.6072 16.3771 17.5808 16.3465 17.5595ZM19.7387 16C19.3307 16 19 16.3271 19 16.7305C19 17.1339 19.3307 17.461 19.7387 17.461C21.5411 17.461 23.0125 18.8619 23.1 20.6227L23.1041 20.7888H22.014C21.9462 20.7888 21.8801 20.8095 21.8247 20.8482C21.6951 20.9387 21.6518 21.1051 21.7131 21.2434L21.7458 21.3006L23.5746 23.8625C23.5962 23.8928 23.6229 23.9192 23.6535 23.9405C23.7831 24.031 23.9562 24.0156 24.0675 23.9122L24.1111 23.8625L25.9399 21.3006C25.979 21.2459 26 21.1805 26 21.1134C26 20.9565 25.8875 20.8256 25.7378 20.7954L25.6717 20.7888H24.5816L24.5783 20.6092C24.4828 18.0477 22.3526 16 19.7387 16Z" fill="white"/>
</svg>
