<svg width="32" height="32" viewBox="0 0 32 32" fill="none" xmlns="http://www.w3.org/2000/svg">
<path fill-rule="evenodd" clip-rule="evenodd" d="M16 32C24.8366 32 32 24.8366 32 16C32 7.16344 24.8366 0 16 0C7.16344 0 0 7.16344 0 16C0 24.8366 7.16344 32 16 32Z" fill="black" fill-opacity="0.04"/>
<path fill-rule="evenodd" clip-rule="evenodd" d="M16.0098 17.7815C18.6752 17.7815 20.5702 19.1897 21.0663 21.2605L21.0979 21.4027C21.1999 21.8964 20.8819 22.3793 20.3876 22.4812C20.3268 22.4937 20.2649 22.5 20.2029 22.5H11.7367C11.2242 22.5 10.8088 22.0851 10.8088 21.5733C10.8088 21.5226 10.813 21.472 10.8213 21.4221L10.8367 21.3477C11.3516 19.2988 13.2837 17.7815 16.0098 17.7815ZM9.37926 17.8815C10.1058 17.8815 10.7696 18.2497 10.7696 18.2497C10.9716 18.3392 11.0661 18.5869 10.9806 18.8028C10.9667 18.838 10.9484 18.8709 10.9264 18.9008L10.8792 18.9551C10.4509 19.4076 10.1524 19.9234 9.9146 20.5383L9.8505 20.7133L9.8179 20.8177C9.78914 20.9251 9.7716 21.0093 9.76019 21.0881L9.75065 21.1657C9.74475 21.2235 9.74136 21.2808 9.74038 21.3378L9.7407 21.4228C9.74712 21.6817 9.55532 21.8986 9.31228 21.9074C9.29248 21.9081 9.27267 21.9073 9.25297 21.9052L5.65979 21.9074C5.25363 21.8634 4.96021 21.4767 5.0044 21.0436C5.00878 21.0007 5.01645 20.9582 5.02732 20.9167L5.046 20.8551C5.63103 19.1654 6.95263 17.8815 9.37926 17.8815ZM22.6207 17.8815C24.9607 17.8815 26.2732 19.0754 26.8885 20.6756L26.954 20.8551L26.9727 20.9167C26.9835 20.9582 26.9912 21.0007 26.9956 21.0436C27.0361 21.4406 26.7929 21.7986 26.4393 21.8894L26.3402 21.9074L22.747 21.9052C22.7273 21.9073 22.7075 21.9081 22.6877 21.9074C22.4717 21.8996 22.2961 21.7273 22.2643 21.5073L22.2593 21.4228L22.2596 21.3378L22.2563 21.252L22.2398 21.0881C22.2322 21.0355 22.2219 20.9806 22.2073 20.9181L22.1821 20.8177L22.1495 20.7133L22.0854 20.5383C21.8816 20.0112 21.6332 19.557 21.2966 19.153L21.0736 18.9008C21.0516 18.8709 21.0333 18.838 21.0194 18.8028C20.9446 18.6139 21.0076 18.4007 21.1599 18.2903L21.2304 18.2497C21.2304 18.2497 21.8853 17.8815 22.6207 17.8815ZM9.61179 11.0885C10.3996 11.2812 11.1479 11.9287 11.104 13.4495L11.0978 13.5901C11.0764 13.6238 11.3704 13.7612 11.3704 14.2036C11.3704 14.4985 11.2795 14.6993 11.0978 14.8058C10.7648 16.2877 10.0712 17.0287 9.01683 17.0287C7.96248 17.0287 7.20796 16.2877 6.75327 14.8058C6.58245 14.7294 6.49704 14.5286 6.49704 14.2036C6.49704 13.8786 6.58245 13.6741 6.75327 13.5901C6.77145 12.3612 7.04572 11.6597 7.57609 11.4856C7.78662 11.4169 7.98581 11.4169 8.17365 11.4856C8.36363 11.0328 8.84301 10.9005 9.61179 11.0885ZM22.3882 11.0885C23.157 10.9005 23.6364 11.0328 23.8264 11.4856C24.0142 11.4169 24.2134 11.4169 24.4239 11.4856C24.9543 11.6597 25.2285 12.3612 25.2467 13.5901C25.4175 13.6741 25.503 13.8786 25.503 14.2036C25.503 14.5286 25.4175 14.7294 25.2467 14.8058C24.792 16.2877 24.0375 17.0287 22.9832 17.0287C21.9288 17.0287 21.2352 16.2877 20.9022 14.8058C20.7205 14.6993 20.6296 14.4985 20.6296 14.2036C20.6296 13.8055 20.8678 13.6543 20.8998 13.6035L20.9022 13.5901L20.896 13.4495C20.8521 11.9287 21.6004 11.2812 22.3882 11.0885ZM19.0058 11.1026C19.6688 12.2671 19.7919 13.6896 19.375 15.37C19.3448 15.5445 19.454 15.6846 19.7026 15.7903L19.776 15.8167C19.8681 15.8462 19.9195 15.9463 19.8906 16.0404C19.8824 16.0671 19.8683 16.0913 19.8495 16.1111L19.818 16.1374C19.4075 16.4054 18.223 16.4252 17.5358 16.2864C17.0816 16.7812 16.5852 17.0287 16.0465 17.0287C15.5078 17.0287 15.0058 16.7812 14.5407 16.2864C13.2393 16.1804 12.5887 15.1851 12.5887 13.3005C12.5887 11.5752 13.2676 10.4412 14.6255 9.8987C14.8596 9.80516 15.1167 9.78942 15.3601 9.85371L15.5402 9.90131C16.8005 9.09914 17.9557 9.49955 19.0058 11.1026Z" fill="black"/>
</svg>
