<svg width="52" height="53" viewBox="0 0 52 53" fill="none" xmlns="http://www.w3.org/2000/svg">
<path fill-rule="evenodd" clip-rule="evenodd" d="M26 52.5C40.3594 52.5 52 40.8594 52 26.5C52 12.1406 40.3594 0.5 26 0.5C11.6406 0.5 0 12.1406 0 26.5C0 40.8594 11.6406 52.5 26 52.5Z" fill="black" fill-opacity="0.04"/>
<path d="M25.8722 16.2565L26 16.25C26.6472 16.25 27.1795 16.7419 27.2435 17.3722L27.25 17.5V25.25H35C35.6472 25.25 36.1795 25.7419 36.2435 26.3722L36.25 26.5C36.25 27.1472 35.7581 27.6795 35.1278 27.7435L35 27.75H27.25V35.5C27.25 36.1472 26.7581 36.6795 26.1278 36.7435L26 36.75C25.3528 36.75 24.8205 36.2581 24.7565 35.6278L24.75 35.5V27.75H17C16.3528 27.75 15.8205 27.2581 15.7565 26.6278L15.75 26.5C15.75 25.8528 16.2419 25.3205 16.8722 25.2565L17 25.25H24.75V17.5C24.75 16.8528 25.2419 16.3205 25.8722 16.2565L26 16.25L25.8722 16.2565Z" fill="black"/>
</svg>
