<svg width="51" height="52" viewBox="0 0 51 52" fill="none" xmlns="http://www.w3.org/2000/svg">
<path fill-rule="evenodd" clip-rule="evenodd" d="M25.5 51.5C39.5833 51.5 51 40.0833 51 26C51 11.9167 39.5833 0.5 25.5 0.5C11.4167 0.5 0 11.9167 0 26C0 40.0833 11.4167 51.5 25.5 51.5Z" fill="#FE294D"/>
<path fill-rule="evenodd" clip-rule="evenodd" d="M25.5935 24.2756H25.4065C22.2376 24.3266 20.158 24.9378 19.1678 26.1094L19.1469 26.7097C19.1068 27.5532 19.028 28.141 18.9104 28.473C18.6657 29.1642 18.3312 29.4875 16.9575 29.8938C15.1505 30.4283 13.6033 30.5 12.7759 30.5C12.0075 30.5 11.4651 29.7241 11.3064 29.2985L11.232 29.0471L11.158 28.7472C10.9617 27.8638 10.7217 25.9362 11.9828 24.2722C12.5274 23.5535 13.4098 22.84 14.6309 22.1886C17.3371 20.8831 20.6146 20.1617 24.4633 20.0243L25.1546 20.0066L25.1546 20L25.4998 20.003L25.8454 20L25.8454 20.0066L26.5367 20.0243C30.3854 20.1617 33.6629 20.8831 36.3691 22.1886C37.5902 22.84 38.4726 23.5535 39.0172 24.2722C40.3812 26.072 39.9892 28.1801 39.7956 28.9419L39.7233 29.207C39.617 29.6001 39.0516 30.5 38.2241 30.5L37.8268 30.4945C36.9493 30.4701 35.5914 30.352 34.0425 29.8938C32.6688 29.4875 32.3343 29.1642 32.0896 28.473C31.9459 28.0672 31.8601 27.2793 31.8322 26.1094C30.842 24.9378 28.7624 24.3266 25.5935 24.2756Z" fill="white"/>
</svg>
