<svg width="32" height="32" viewBox="0 0 32 32" fill="none" xmlns="http://www.w3.org/2000/svg">
<path fill-rule="evenodd" clip-rule="evenodd" d="M16 32C24.8366 32 32 24.8366 32 16C32 7.16344 24.8366 0 16 0C7.16344 0 0 7.16344 0 16C0 24.8366 7.16344 32 16 32Z" fill="black" fill-opacity="0.04"/>
<path fill-rule="evenodd" clip-rule="evenodd" d="M23.392 8.30797C23.6003 8.51625 23.6235 8.83956 23.4615 9.0734L23.392 9.1565C23.392 9.1565 22.6862 9.86254 22.3333 10.2156C22.2726 10.2763 22.1887 10.3602 22.1082 10.4408C21.9646 10.5844 21.9517 10.8126 22.0746 10.9743C22.1649 11.093 22.2631 11.2254 22.3267 11.3208C23.0695 12.4345 23.5 13.7573 23.5 15.1764C23.5 19.0606 20.2751 22.2241 16.2476 22.349L16 22.3529C15.6457 22.3529 15.1322 22.4446 14.2905 22.2054C13.4489 21.9662 12.0246 22.2266 11.5507 22.4124L11.3629 22.4932L11.04 22.6414C9.69715 23.2671 9.173 23.2341 8.77583 22.8303C8.54203 22.5927 8.65046 22.1987 8.88622 21.9629L22.5435 8.30797C22.7778 8.07365 23.1577 8.07365 23.392 8.30797ZM16 8C17.0713 8 18.0902 8.21493 19.012 8.60219C19.0377 8.61296 19.0649 8.62489 19.0934 8.63776C19.5767 8.85613 19.6591 9.49618 19.2838 9.87099C19.2188 9.9359 19.1582 9.99648 19.1063 10.0483C16.7267 12.425 12.1261 17.0201 10.3893 18.7548C10.0601 19.0836 9.50569 18.9711 9.32535 18.5422C8.77512 17.3659 8.5 16.2439 8.5 15.1764C8.5 11.213 11.8579 8 16 8Z" fill="black"/>
</svg>
