<svg width="23" height="24" viewBox="0 0 23 24" fill="none" xmlns="http://www.w3.org/2000/svg">
<path fill-rule="evenodd" clip-rule="evenodd" d="M3.84346 10.8659C4.39575 10.8659 4.84346 11.3136 4.84346 11.8659V21.658C4.84346 22.2103 4.39575 22.658 3.84346 22.658H2.0478C1.7432 22.658 1.46055 22.509 1.28778 22.2638L1.22832 22.1675C0.628127 21.048 0.328033 19.2461 0.328033 16.7619C0.328033 14.3359 0.61424 12.5606 1.18665 11.4362L1.28471 11.2548C1.42283 11.0142 1.67904 10.8659 1.95641 10.8659H3.84346ZM11.0581 0.634519C13.3606 0.934661 14.5118 2.4057 14.5118 5.04765C14.5118 5.58163 14.3679 6.77661 14.0801 8.63259C18.774 8.73048 20.9861 9.56187 20.9861 11.1267C20.9861 11.5124 20.8872 11.8816 20.4198 12.2345C21.1484 12.6793 21.5128 13.3125 21.5128 14.1341C21.5128 14.9558 21.0938 15.6278 20.256 16.1501C20.659 16.6046 20.8099 17.135 20.7087 17.7412C20.6075 18.3475 20.149 18.803 19.3332 19.1079C19.7295 20.8204 17.7973 21.6767 13.5367 21.6767C7.2599 21.6767 6.67005 20.1059 6.65098 18.6934L6.65048 13.0001C6.58616 11.7008 6.96587 10.6095 7.78963 9.72621L7.9603 9.55232C9.41985 8.13801 10.2086 6.72399 10.3266 5.31028L10.1555 1.46333C10.1359 1.02195 10.4777 0.648233 10.9191 0.628598C10.9655 0.626534 11.012 0.628515 11.0581 0.634519Z" fill="#0584FE"/>
</svg>
