<svg width="51" height="52" viewBox="0 0 51 52" fill="none" xmlns="http://www.w3.org/2000/svg">
<path fill-rule="evenodd" clip-rule="evenodd" d="M25.5 51.5C39.5833 51.5 51 40.0833 51 26C51 11.9167 39.5833 0.5 25.5 0.5C11.4167 0.5 0 11.9167 0 26C0 40.0833 11.4167 51.5 25.5 51.5Z" fill="white" fill-opacity="0.35"/>
<path fill-rule="evenodd" clip-rule="evenodd" d="M21.4797 36H29.4482C29.9983 36 30.4442 36.4477 30.4442 37C30.4442 37.5128 30.0597 37.9355 29.5643 37.9933L29.4482 38H21.4797C20.9296 38 20.4836 37.5523 20.4836 37C20.4836 36.4872 20.8681 36.0645 21.3635 36.0067L21.4797 36H29.4482H21.4797ZM33.5332 24.6035C34.083 24.6197 34.5157 25.0804 34.4996 25.6324C34.4577 27.0647 34.0014 28.5824 33.2274 29.9284C30.7519 34.233 25.2692 35.7079 20.9816 33.2226C18.2389 31.6329 16.5711 28.7458 16.5003 25.6258C16.4877 25.0737 16.9234 24.6159 17.4734 24.6033C18.0233 24.5907 18.4793 25.0281 18.4919 25.5803C18.547 28.0091 19.8435 30.2536 21.9776 31.4906C25.3125 33.4236 29.5768 32.2764 31.5021 28.9284C32.1165 27.86 32.4764 26.6628 32.5083 25.5737C32.5244 25.0217 32.9833 24.5873 33.5332 24.6035ZM25.4639 14C28.2145 14 30.4442 16.2386 30.4442 19V25.5C30.4442 28.2614 28.2145 30.5 25.4639 30.5C22.7134 30.5 20.4836 28.2614 20.4836 25.5V19C20.4836 16.2386 22.7134 14 25.4639 14Z" fill="white"/>
</svg>
