<svg width="40" height="40" viewBox="0 0 40 40" fill="none" xmlns="http://www.w3.org/2000/svg">
<path fill-rule="evenodd" clip-rule="evenodd" d="M20 40C31.0457 40 40 31.0457 40 20C40 8.9543 31.0457 0 20 0C8.9543 0 0 8.9543 0 20C0 31.0457 8.9543 40 20 40Z" fill="black" fill-opacity="0.04"/>
<path fill-rule="evenodd" clip-rule="evenodd" d="M22.25 27.75C22.25 28.9926 21.2426 30 20 30C18.8071 30 17.831 29.0716 17.7548 27.8979L17.75 27.75H22.25ZM19.9917 10.75C23.3021 10.75 25.4033 13.0501 25.9858 16.7447L26.7902 22.5802C27.3567 24.7395 28.5 24.0023 28.5 25.1864C28.5 25.9399 27.7534 26.293 26.2602 26.2458L26.0418 26.2364H13.9582L13.7398 26.2458C12.2466 26.293 11.5 25.9399 11.5 25.1864C11.5 24.0445 12.5631 24.6893 13.1469 22.8007L13.2098 22.5802C13.2098 22.5802 13.834 18.1827 14.0142 16.7447C14.5818 13.1448 16.5911 10.8689 19.7561 10.7545L19.9917 10.75Z" fill="black"/>
</svg>
