<svg width="40" height="40" viewBox="0 0 40 40" fill="none" xmlns="http://www.w3.org/2000/svg">
<path fill-rule="evenodd" clip-rule="evenodd" d="M20 40C31.0457 40 40 31.0457 40 20C40 8.9543 31.0457 0 20 0C8.9543 0 0 8.9543 0 20C0 31.0457 8.9543 40 20 40Z" fill="black" fill-opacity="0.04"/>
<path fill-rule="evenodd" clip-rule="evenodd" d="M30.2637 12.2394C30.9459 11.5536 30.9444 10.4451 30.2604 9.76119L30.1323 9.64501C29.4451 9.08083 28.4286 9.1213 27.7889 9.76451L19.3208 18.2782C18.5628 19.0403 18.0234 19.9919 17.7591 21.0337L17.4093 22.4123L17.4164 22.4655C17.4397 22.5502 17.5172 22.6123 17.6093 22.6123L18.9484 22.3049C20.0521 22.0516 21.0615 21.4911 21.8601 20.6883L30.2637 12.2394ZM20.25 12.5645C20.25 12.1503 19.9142 11.8145 19.5 11.8145H15L14.8156 11.8196C13.1065 11.9152 11.75 13.3315 11.75 15.0645V25.0645L11.7551 25.2489C11.8508 26.958 13.267 28.3145 15 28.3145H25L25.1844 28.3093C26.8935 28.2137 28.25 26.7975 28.25 25.0645L28.2445 20.5636C28.244 20.1497 27.9083 19.8145 27.4945 19.8145H26.5C26.0858 19.8145 25.75 20.1503 25.75 20.5645V25.0645L25.7432 25.1663C25.6935 25.5323 25.3797 25.8145 25 25.8145H15L14.8982 25.8076C14.5322 25.758 14.25 25.4442 14.25 25.0645V15.0645L14.2568 14.9627C14.3065 14.5966 14.6203 14.3145 15 14.3145L19.5009 14.309C19.9148 14.3084 20.25 13.9728 20.25 13.559V12.5645Z" fill="black"/>
</svg>
