<svg width="40" height="40" viewBox="0 0 40 40" fill="none" xmlns="http://www.w3.org/2000/svg">
<path fill-rule="evenodd" clip-rule="evenodd" d="M20 40C31.0457 40 40 31.0457 40 20C40 8.9543 31.0457 0 20 0C8.9543 0 0 8.9543 0 20C0 31.0457 8.9543 40 20 40Z" fill="black" fill-opacity="0.04"/>
<path fill-rule="evenodd" clip-rule="evenodd" d="M20 10.5C25.2467 10.5 29.5 14.5698 29.5 19.5902C29.5 24.6105 25.2467 28.6803 20 28.6803C19.2694 28.6803 18.5523 28.6019 17.8488 28.445L17.2185 28.2909C16.4598 28.13 15.6707 28.1953 14.9493 28.4781L14.7115 28.5804L14.3026 28.7681C12.7868 29.4466 11.8696 29.6534 11.5511 29.3883C11.2602 29.1463 11.3352 28.527 11.7762 27.5305C12.2201 26.5275 12.2254 25.3891 11.7983 24.3865L11.7001 24.1738L11.5454 23.8535C10.8485 22.3634 10.5 20.9423 10.5 19.5902C10.5 14.5698 14.7533 10.5 20 10.5ZM15.25 18C14.4216 18 13.75 18.6716 13.75 19.5C13.75 20.3284 14.4216 21 15.25 21C16.0784 21 16.75 20.3284 16.75 19.5C16.75 18.6716 16.0784 18 15.25 18ZM20 18C19.1716 18 18.5 18.6716 18.5 19.5C18.5 20.3284 19.1716 21 20 21C20.8284 21 21.5 20.3284 21.5 19.5C21.5 18.6716 20.8284 18 20 18ZM24.75 18C23.9216 18 23.25 18.6716 23.25 19.5C23.25 20.3284 23.9216 21 24.75 21C25.5784 21 26.25 20.3284 26.25 19.5C26.25 18.6716 25.5784 18 24.75 18Z" fill="black"/>
</svg>
