<svg width="32" height="32" viewBox="0 0 32 32" fill="none" xmlns="http://www.w3.org/2000/svg">
<path fill-rule="evenodd" clip-rule="evenodd" d="M16 32C24.8366 32 32 24.8366 32 16C32 7.16344 24.8366 0 16 0C7.16344 0 0 7.16344 0 16C0 24.8366 7.16344 32 16 32Z" fill="black" fill-opacity="0.04"/>
<path fill-rule="evenodd" clip-rule="evenodd" d="M20.5 14.75C20.5 11.4363 17.8137 8.75 14.5 8.75C11.1863 8.75 8.5 11.4363 8.5 14.75C8.5 18.0637 11.1863 20.75 14.5 20.75C15.631 20.75 16.6889 20.4371 17.5919 19.8931L17.6538 19.8548C17.8638 19.7223 18.139 19.7623 18.3025 19.9492L20.9017 22.9194L21.0031 23.0105C21.494 23.4054 22.2138 23.375 22.6694 22.9194C23.1576 22.4313 23.1576 21.6398 22.6694 21.1517L19.7017 18.6075L19.6336 18.5375C19.4922 18.3625 19.4736 18.1129 19.5972 17.9166L19.7606 17.6378C20.2319 16.7811 20.5 15.7968 20.5 14.75ZM10.5 14.75C10.5 12.5409 12.2909 10.75 14.5 10.75C16.7091 10.75 18.5 12.5409 18.5 14.75C18.5 16.9591 16.7091 18.75 14.5 18.75C12.2909 18.75 10.5 16.9591 10.5 14.75Z" fill="black"/>
</svg>
