<svg width="40" height="40" viewBox="0 0 40 40" fill="none" xmlns="http://www.w3.org/2000/svg">
<path fill-rule="evenodd" clip-rule="evenodd" d="M20 40C31.0457 40 40 31.0457 40 20C40 8.9543 31.0457 0 20 0C8.9543 0 0 8.9543 0 20C0 31.0457 8.9543 40 20 40Z" fill="black" fill-opacity="0.04"/>
<path fill-rule="evenodd" clip-rule="evenodd" d="M21.6555 11.25C22.1583 11.25 22.6426 11.4394 23.0121 11.7804L24.3004 12.9696C24.6237 13.268 25.0349 13.4503 25.4695 13.4912L25.657 13.5H26.25C28.183 13.5 29.75 15.067 29.75 17V25C29.75 26.933 28.183 28.5 26.25 28.5H13.75C11.817 28.5 10.25 26.933 10.25 25V17C10.25 15.067 11.817 13.5 13.75 13.5H14.343C14.8458 13.5 15.3301 13.3106 15.6996 12.9696L16.9879 11.7804C17.3574 11.4394 17.8417 11.25 18.3445 11.25H21.6555ZM20 15.75C17.2386 15.75 15 17.9886 15 20.75C15 23.5114 17.2386 25.75 20 25.75C22.7614 25.75 25 23.5114 25 20.75C25 17.9886 22.7614 15.75 20 15.75ZM20 17.25C21.933 17.25 23.5 18.817 23.5 20.75C23.5 22.683 21.933 24.25 20 24.25C18.067 24.25 16.5 22.683 16.5 20.75C16.5 18.817 18.067 17.25 20 17.25Z" fill="black"/>
</svg>
