<svg width="40" height="40" viewBox="0 0 40 40" fill="none" xmlns="http://www.w3.org/2000/svg">
<path fill-rule="evenodd" clip-rule="evenodd" d="M20 40C31.0457 40 40 31.0457 40 20C40 8.9543 31.0457 0 20 0C8.9543 0 0 8.9543 0 20C0 31.0457 8.9543 40 20 40Z" fill="black" fill-opacity="0.04"/>
<path fill-rule="evenodd" clip-rule="evenodd" d="M21.5 13C23.1569 13 24.5 14.3431 24.5 16V24C24.5 25.6569 23.1569 27 21.5 27H12.5C10.8431 27 9.5 25.6569 9.5 24V16C9.5 14.3431 10.8431 13 12.5 13H21.5ZM30.3993 16.4711C30.4654 16.5899 30.5 16.7237 30.5 16.8596V23.1404C30.5 23.5822 30.1418 23.9404 29.7 23.9404C29.564 23.9404 29.4303 23.9057 29.3115 23.8397L26.5144 22.2858C26.1969 22.1094 26 21.7748 26 21.4116V18.5884C26 18.2252 26.1969 17.8906 26.5144 17.7142L29.3115 16.1603C29.6977 15.9457 30.1848 16.0849 30.3993 16.4711Z" fill="black"/>
</svg>
